{"title":"Bob The Builder On Site Skyscrapers 2009 DVDRip [A Release-Loung","uid":4804626,"size":1262403223,"categoryP":"video","categoryS":"hd___movies","magnet":"?xt=urn:btih:2d547fa1766b64633ca01f39d5ab5c8cc535b5c5&amp;dn=Bob+The+Builder+On+Site+Skyscrapers+2009+DVDRip+%5BA+Release-Loung&amp;tr=udp%3A%2F%2Ftracker.openbittorrent.com%3A80&amp;tr=udp%3A%2F%2Fopen.demonii.com%3A1337&amp;tr=udp%3A%2F%2Ftracker.coppersurfer.tk%3A6969&amp;tr=udp%3A%2F%2Fexodus.desync.com%3A6969","seeders":0,"leechers":1,"uploader":"DantonThe","files":87,"time":1238159935,"description":"Complete name                    : Bob The Builder On Site Skyscrapers 2009 DVDRip [A                                    Release-Lounge H264]\nStory                            : Bob the Builder, well know from TV series and films for our                   kids films in new adventure, building skyscrapers.\n\nFormat                           : MPEG-4\nFormat profile                   : Base Media / Version 2\nCodec ID                         : mp42\nFile size                        : 1.18 GiB\nDuration                         : 1h 15mn\nOverall bit rate                 : 2 229 Kbps\nEncoded date                     : UTC 2009-03-20 00:05:41\nTagged date                      : UTC 2009-03-20 02:49:12\nWriting application              : HandBrake 0.9.3 2008112300\n\nVideo\nID                               : 1\nFormat                           : AVC\nFormat/Info                      : Advanced Video Codec\nFormat profile                   : &lt;a class=&quot;__cf_email__&quot; href=&quot;/cdn-cgi/l/email-protection&quot; data-cfemail=&quot;2469454d4a6468170a15&quot;&gt;[email&amp;#160;protected]&lt;/a&gt;&lt;script cf-hash='f9e31' type=&quot;text/javascript&quot;&gt;\n/* &lt;![CDATA[ */!function(){try{var t=&quot;currentScript&quot;in document?document.currentScript:function(){for(var t=document.getElementsByTagName(&quot;script&quot;),e=t.length;e--;)if(t[e].getAttribute(&quot;cf-hash&quot;))return t[e]}();if(t&amp;&amp;t.previousSibling){var e,r,n,i,c=t.previousSibling,a=c.getAttribute(&quot;data-cfemail&quot;);if(a){for(e=&quot;&quot;,r=parseInt(a.substr(0,2),16),n=2;a.length-n;n+=2)i=parseInt(a.substr(n,2),16)^r,e+=String.fromCharCode(i);e=document.createTextNode(e),c.parentNode.replaceChild(e,c)}}}catch(u){}}();/* ]]&gt; */&lt;/script&gt;\nFormat settings, CABAC           : Yes\nFormat settings, ReFrames        : 8 frames\nCodec ID                         : avc1\nCodec ID/Info                    : Advanced Video Coding\nDuration                         : 1h 15mn\nBit rate mode                    : Variable\nBit rate                         : 1 928 Kbps\nWidth                            : 720 pixels\nHeight                           : 544 pixels\nDisplay aspect ratio             : 4/3\nFrame rate mode                  : Variable\nFrame rate                       : 29.970 fps\nMinimum frame rate               : 29.963 fps\nMaximum frame rate               : 69.264 fps\nResolution                       : 24 bits\nColorimetry                      : 4:2:0\nScan type                        : Progressive\nBits/(Pixel*Frame)               : 0.164\nStream size                      : 1.02 GiB (87%)\nWriting library                  : x264 core 65\nEncoding settings                : cabac=1 / ref=8 / deblock=1:-1:-1 / analyse=0x1:0x131 / me=umh / subme=7 / psy_rd=1.0:0.0 / mixed_ref=1 / me_range=24 / chroma_me=1 / trellis=2 / 8x8dct=0 / cqm=0 / deadzone=21,11 / chroma_qp_offset=-2 / threads=6 / nr=0 / decimate=1 / mbaff=0 / bframes=3 / b_pyramid=0 / b_adapt=1 / b_bias=0 / direct=3 / wpredb=0 / keyint=300 / keyint_min=30 / scenecut=40(pre) / rc=2pass / bitrate=1928 / ratetol=1.0 / qcomp=0.60 / qpmin=10 / qpmax=51 / qpstep=4 / cplxblur=20.0 / qblur=0.5 / ip_ratio=1.40 / pb_ratio=1.30 / aq=1:1.00\nEncoded date                     : UTC 2009-03-20 00:05:41\nTagged date                      : UTC 2009-03-20 02:49:12\n\nAudio #1\nID                               : 2\nFormat                           : AAC\nFormat/Info                      : Advanced Audio Codec\nFormat version                   : Version 4\nFormat profile                   : LC\nFormat settings, SBR             : No\nCodec ID                         : 40\nDuration                         : 1h 15mn\nBit rate mode                    : Variable\nBit rate                         : 128 Kbps\nMaximum bit rate                 : 236 Kbps\nChannel(s)                       : 2 channels\nChannel positions                : L R\nSampling rate                    : 48.0 KHz\nResolution                       : 16 bits\nStream size                      : 69.2 MiB (6%)\nLanguage                         : English\nEncoded date                     : UTC 2009-03-20 00:05:41\nTagged date                      : UTC 2009-03-20 02:49:07\n\nAudio #2\nID                               : 3\nFormat                           : AAC\nFormat/Info                      : Advanced Audio Codec\nFormat version                   : Version 4\nFormat profile                   : LC\nFormat settings, SBR             : No\nCodec ID                         : 40\nDuration                         : 1h 15mn\nBit rate mode                    : Variable\nBit rate                         : 165 Kbps\nMaximum bit rate                 : 245 Kbps\nChannel(s)                       : 2 channels\nChannel positions                : L R\nSampling rate                    : 48.0 KHz\nResolution                       : 16 bits\nStream size                      : 89.5 MiB (7%)\nLanguage                         : English\nEncoded date                     : UTC 2009-03-20 00:05:41\nTagged date                      : UTC 2009-03-20 02:49:07\n\nText\nID                               : 4\nFormat                           : Apple text\nCodec ID                         : text\nDuration                         : 1h 15mn\nBit rate mode                    : Variable\nStream size                      : 543 Bytes (0%)\nEncoded date                     : UTC 2009-03-20 00:05:41\nTagged date                      : UTC 2009-03-20 02:49:12\n\n","torrent":{"xt":"urn:btih:2d547fa1766b64633ca01f39d5ab5c8cc535b5c5","amp;dn":"Bob+The+Builder+On+Site+Skyscrapers+2009+DVDRip+%5BA+Release-Loung","amp;tr":["udp%3A%2F%2Ftracker.openbittorrent.com%3A80","udp%3A%2F%2Fopen.demonii.com%3A1337","udp%3A%2F%2Ftracker.coppersurfer.tk%3A6969","udp%3A%2F%2Fexodus.desync.com%3A6969"],"infoHash":"2d547fa1766b64633ca01f39d5ab5c8cc535b5c5","infoHashBuffer":{"type":"Buffer","data":[45,84,127,161,118,107,100,99,60,160,31,57,213,171,92,140,197,53,181,197]},"announce":[],"urlList":[]}}